<svg width="234" height="123" viewBox="0 0 234 123" fill="none" xmlns="http://www.w3.org/2000/svg">
<path d="M119.347 28.295C117.252 28.295 115.5 28.9904 114.092 30.3759C112.685 31.7655 111.977 33.4906 111.977 35.5551V81.6786C111.977 84.1 111.147 86.1472 109.486 87.8193C107.822 89.4923 105.762 90.3304 103.309 90.3304C102.699 90.3304 102.115 90.2743 101.551 90.1734C99.8434 89.8583 98.3524 89.0804 97.0786 87.8193C95.3786 86.1462 94.5301 84.1 94.5301 81.6786V35.6642C94.5301 35.1065 94.4763 34.5774 94.3822 34.0747C94.138 32.5974 93.5109 31.3485 92.499 30.3188C91.1621 28.971 89.4134 28.294 87.2467 28.294C85.1514 28.294 83.3965 28.9893 81.9903 30.3749C80.5841 31.7645 79.8764 33.4895 79.8764 35.5541V81.6776C79.8764 83.0377 79.5846 84.2662 79.06 85.3897C78.6513 86.2675 78.1143 87.0842 77.3858 87.8193C76.1131 89.1018 74.5993 89.8797 72.8589 90.1825C72.3302 90.2743 71.7849 90.3304 71.2096 90.3304H71.0854C68.629 90.3304 66.5709 89.4923 64.9081 87.8193C63.2474 86.1462 62.4175 84.1 62.4175 81.6817V37.4361V34.1665C62.4175 30.6858 61.8546 27.4835 60.7868 24.5167C59.4717 20.8729 57.3826 17.5991 54.4502 14.7332C49.142 9.53772 42.5498 6.94098 34.6777 6.94098C26.8014 6.94098 20.2257 9.53772 14.9528 14.7332C9.68292 19.9288 7.04541 26.4099 7.04541 34.1665V76.0233C7.04541 78.1582 7.71384 79.8802 9.0507 81.2025C10.3845 82.5147 12.1383 83.1702 14.3061 83.1702C16.4717 83.1702 18.2421 82.5147 19.6142 81.2025C20.9852 79.8802 21.6733 78.1582 21.6733 76.0233V34.1665C21.6733 30.6104 22.9356 27.5854 25.4666 25.0927C27.9965 22.604 31.0634 21.3571 34.6766 21.3571C38.2878 21.3571 41.3754 22.604 43.9374 25.0927C44.5262 25.6646 45.0404 26.2672 45.4915 26.8952C47.0167 29.0056 47.7866 31.423 47.7866 34.1675C47.7866 37.7277 46.5066 40.7731 43.9374 43.2933C42.9585 44.2629 41.8938 45.0459 40.7577 45.6433C38.9283 46.6027 36.9044 47.087 34.6766 47.087C32.5089 47.087 30.7571 47.7456 29.4192 49.0639C28.0855 50.3801 27.416 52.1021 27.416 54.237C27.416 56.378 28.0844 58.1204 29.4192 59.4722C30.7571 60.8282 32.5089 61.5032 34.6766 61.5032C36.7554 61.5032 38.7803 61.2738 40.7577 60.8425C43.1758 60.3093 45.5205 59.4723 47.7866 58.2978V81.6837C47.7866 84.1449 48.1021 86.4592 48.7302 88.6216C49.7732 92.2043 51.6792 95.374 54.4491 98.1257C56.3965 100.058 58.5673 101.541 60.9379 102.63C64.0017 104.022 67.4183 104.742 71.2096 104.742C71.5096 104.742 71.7962 104.717 72.0953 104.707C73.1642 104.667 74.2185 104.581 75.2357 104.43C79.1821 103.837 82.6815 102.341 85.734 99.9466C86.2255 99.5622 86.7097 99.1564 87.1805 98.7262C90.5444 101.823 94.5312 103.726 99.1491 104.419C100.485 104.622 101.864 104.743 103.309 104.743C109.954 104.743 115.5 102.539 119.943 98.1267C124.385 93.7121 126.607 88.2342 126.607 81.6807V35.5571C126.607 33.4202 125.937 31.6778 124.601 30.3219C123.266 28.972 121.514 28.295 119.347 28.295Z" fill="#F37121"/>
<path d="M119.347 21.3571C115.3 21.3571 111.888 22.7274 109.107 25.4648C106.326 28.2053 104.936 31.5657 104.936 35.5541V81.6776C104.936 82.8185 104.393 83.3884 103.309 83.3884C102.151 83.3884 101.574 82.8185 101.574 81.6776V35.6632C101.574 34.6232 101.48 33.6323 101.3 32.6841C100.801 29.8763 99.5289 27.4529 97.4833 25.4097C94.7785 22.7059 91.3649 21.3551 87.2457 21.3551C83.1989 21.3551 79.7854 22.7253 77.0051 25.4628C74.2227 28.2033 72.8362 31.5636 72.8362 35.552V81.6756C72.8362 82.8164 72.2929 83.3863 71.2096 83.3863C70.0507 83.3863 69.4723 82.8164 69.4723 81.6756V37.5829C69.4723 37.483 69.4609 37.3913 69.4609 37.2964V34.1645C69.4609 24.5564 66.1177 16.4603 59.4355 9.87721C52.7532 3.29003 44.4982 0 34.6766 0C24.852 0 16.6135 3.27371 9.96851 9.81705C3.32249 16.3706 0 24.485 0 34.1645V86.6937C0 90.7514 1.35859 94.1148 4.06542 96.7819C6.77329 99.4562 10.1868 100.789 14.305 100.789C18.4222 100.789 21.8513 99.4562 24.5964 96.7819C27.3415 94.1159 28.7156 90.7524 28.7156 86.6937V77.942C30.5916 78.723 32.5793 79.1104 34.6756 79.1104C36.6975 79.1104 38.7214 78.9371 40.7453 78.5772V92.3551C40.7453 98.6181 42.3522 104.113 45.5288 108.86C45.594 108.952 45.6416 109.052 45.7047 109.141C45.892 109.416 46.1134 109.672 46.3069 109.939C47.2702 111.247 48.3236 112.511 49.5332 113.706C55.3876 119.473 62.611 122.358 71.2075 122.358C71.2862 122.358 71.3669 122.346 71.4455 122.346C71.5107 122.346 71.5645 122.358 71.6245 122.358C72.0042 122.358 72.3716 122.332 72.7368 122.308C78.105 122.076 82.9195 120.641 87.1847 118.023C91.8813 120.891 97.2473 122.358 103.307 122.358C111.831 122.358 119.017 119.454 124.872 113.656C130.726 107.852 133.65 100.753 133.65 92.3531V35.55C133.65 31.4933 132.293 28.1125 129.582 25.4067C126.879 22.707 123.466 21.3571 119.347 21.3571ZM126.608 81.6786C126.608 88.2322 124.386 93.7101 119.944 98.1247C115.501 102.537 109.955 104.741 103.31 104.741C101.865 104.741 100.486 104.62 99.1502 104.417C94.5312 103.724 90.5454 101.82 87.1816 98.7241C86.7108 99.1544 86.2255 99.5602 85.735 99.9445C82.6836 102.34 79.1842 103.835 75.2367 104.428C74.2196 104.579 73.1652 104.665 72.0963 104.705C71.7973 104.715 71.5107 104.74 71.2106 104.74C67.4194 104.74 64.0027 104.02 60.9389 102.628C58.5694 101.539 56.3975 100.056 54.4502 98.1236C51.6792 95.3719 49.7732 92.2012 48.7313 88.6196C48.1032 86.4572 47.7876 84.1428 47.7876 81.6817V58.2957C45.5216 59.4702 43.1769 60.3072 40.7587 60.8405C38.7814 61.2727 36.7564 61.5011 34.6777 61.5011C32.5099 61.5011 30.7582 60.8262 29.4203 59.4702C28.0865 58.1183 27.417 56.3759 27.417 54.2349C27.417 52.1 28.0855 50.378 29.4203 49.0618C30.7582 47.7436 32.5099 47.0849 34.6777 47.0849C36.9054 47.0849 38.9294 46.6007 40.7587 45.6413C41.8959 45.0439 42.9596 44.2609 43.9384 43.2913C46.5066 40.77 47.7876 37.7257 47.7876 34.1655C47.7876 31.4219 47.0178 29.0036 45.4926 26.8932C45.0415 26.2661 44.5272 25.6626 43.9384 25.0906C41.3754 22.602 38.2889 21.3551 34.6777 21.3551C31.0644 21.3551 27.9975 22.602 25.4676 25.0906C22.9367 27.5834 21.6743 30.6083 21.6743 34.1645V76.0213C21.6743 78.1561 20.9862 79.8781 19.6152 81.2005C18.2432 82.5126 16.4728 83.1682 14.3071 83.1682C12.1394 83.1682 10.3855 82.5126 9.05175 81.2005C7.71489 79.8781 7.04646 78.1561 7.04646 76.0213V34.1645C7.04646 26.4089 9.68397 19.9267 14.9538 14.7312C20.2278 9.53566 26.8024 6.93892 34.6787 6.93892C42.5509 6.93892 49.1431 9.53566 54.4512 14.7312C57.3836 17.5971 59.4738 20.8698 60.7879 24.5146C61.8557 27.4814 62.4186 30.6838 62.4186 34.1645V37.4341V81.6796C62.4186 84.097 63.2484 86.1442 64.9092 87.8172C66.5709 89.4903 68.63 90.3283 71.0865 90.3283H71.2106C71.7859 90.3283 72.3312 90.2722 72.86 90.1805C74.6004 89.8777 76.1142 89.0988 77.3869 87.8172C78.1153 87.0821 78.6534 86.2665 79.0611 85.3877C79.5857 84.2641 79.8774 83.0356 79.8774 81.6756V35.552C79.8774 33.4875 80.5852 31.7624 81.9914 30.3728C83.3976 28.9873 85.1525 28.292 87.2478 28.292C89.4145 28.292 91.1632 28.9689 92.5 30.3167C93.513 31.3465 94.139 32.5944 94.3832 34.0727C94.4774 34.5743 94.5312 35.1045 94.5312 35.6621V81.6766C94.5312 84.098 95.3797 86.1452 97.0797 87.8172C98.3534 89.0773 99.8445 89.8563 101.552 90.1713C102.116 90.2733 102.7 90.3283 103.31 90.3283C105.763 90.3283 107.822 89.4903 109.487 87.8172C111.148 86.1442 111.978 84.098 111.978 81.6766V35.553C111.978 33.4885 112.686 31.7635 114.093 30.3738C115.501 28.9883 117.253 28.293 119.348 28.293C121.515 28.293 123.267 28.9699 124.602 30.3178C125.938 31.6737 126.608 33.4161 126.608 35.553V81.6786Z" fill="black"/>
<path d="M144.394 28.295C145.647 28.295 146.68 28.3592 147.493 28.4826C148.304 28.61 148.947 28.8731 149.422 29.2727C149.897 29.6714 150.225 30.2444 150.397 30.9876C150.572 31.7318 150.662 32.73 150.662 33.9881V55.7285H144.987V50.3444H143.663V55.7285H138.202V33.9881C138.202 32.73 138.29 31.7318 138.461 30.9876C138.636 30.2444 138.95 29.6714 139.403 29.2727C139.854 28.8721 140.486 28.61 141.3 28.4826C142.111 28.3582 143.142 28.295 144.394 28.295ZM143.663 45.782H144.987V33.9881C144.987 33.6893 144.952 33.4905 144.883 33.3886C144.812 33.2826 144.626 33.2336 144.326 33.2336C144.023 33.2336 143.838 33.2836 143.766 33.3886C143.699 33.4905 143.662 33.6893 143.662 33.9881V45.782H143.663Z" fill="black"/>
<path d="M158.977 41.1207V40.1613C158.977 39.8626 158.942 39.6638 158.872 39.5578C158.805 39.4558 158.619 39.4048 158.317 39.4048C158.037 39.4048 157.863 39.4568 157.795 39.5578C157.724 39.6638 157.688 39.8626 157.688 40.1613V41.189C157.688 41.5754 157.729 41.8517 157.811 42.0118C157.889 42.1708 158.084 42.3421 158.384 42.5276L162.143 44.583C162.467 44.7665 162.74 44.947 162.958 45.1162C163.183 45.2855 163.358 45.4771 163.483 45.68C163.611 45.887 163.698 46.1317 163.745 46.4192C163.791 46.7067 163.813 47.0523 163.813 47.4663V51.7157C163.813 52.6771 163.737 53.4438 163.586 54.0137C163.435 54.5877 163.158 55.025 162.75 55.336C162.346 55.6429 161.787 55.8417 161.084 55.9334C160.373 56.0293 159.451 56.0711 158.316 56.0711C157.201 56.0711 156.284 56.0293 155.566 55.9334C154.846 55.8417 154.29 55.6429 153.896 55.336C153.503 55.025 153.228 54.5877 153.078 54.0137C152.927 53.4438 152.85 52.6771 152.85 51.7157V48.5296H157.688V50.7563C157.688 51.055 157.723 51.2538 157.795 51.3557C157.862 51.4597 158.037 51.5128 158.317 51.5128C158.619 51.5128 158.805 51.4587 158.872 51.3557C158.941 51.2538 158.977 51.055 158.977 50.7563V49.0435C158.977 48.653 158.93 48.3899 158.837 48.2533C158.745 48.1177 158.572 47.9781 158.317 47.8435L154.871 45.992C154.454 45.7626 154.111 45.5404 153.843 45.3212C153.575 45.106 153.368 44.8593 153.22 44.584C153.068 44.3108 152.969 43.9825 152.923 43.592C152.876 43.2015 152.851 42.7234 152.851 42.1504V39.1989C152.851 38.2415 152.928 37.4769 153.079 36.9029C153.229 36.3309 153.504 35.8915 153.897 35.5826C154.291 35.2717 154.847 35.0769 155.567 34.9852C156.285 34.8914 157.202 34.8455 158.317 34.8455C159.452 34.8455 160.374 34.8914 161.085 34.9852C161.789 35.0769 162.348 35.2717 162.751 35.5826C163.159 35.8915 163.436 36.3309 163.588 36.9029C163.738 37.4769 163.814 38.2415 163.814 39.1989V41.1227H158.977V41.1207Z" fill="black"/>
<path d="M173.106 39.1316H171.293V50.376C171.293 51.1549 171.7 51.5434 172.513 51.5434H173.07V55.7285H171.885C169.822 55.7285 168.377 55.3778 167.556 54.6815C166.731 53.9841 166.319 52.883 166.319 51.3741V39.1316H165.134V35.187H166.319V28.295H171.293V35.187H173.106V39.1316Z" fill="black"/>
<path d="M180.137 32.2059H175.194V28.295H180.137V32.2059ZM180.137 55.7285H175.194V35.187H180.137V55.7285Z" fill="black"/>
<path d="M187.548 47.0503V51.1345C187.548 51.4291 187.584 51.628 187.652 51.734C187.722 51.8359 187.897 51.8869 188.177 51.8869C188.477 51.8869 188.665 51.8349 188.73 51.734C188.801 51.628 188.837 51.4291 188.837 51.1345V48.7315H193.363V51.7146C193.363 52.676 193.287 53.4468 193.136 54.03C192.984 54.6131 192.716 55.0556 192.334 55.3482C191.952 55.6469 191.425 55.8396 190.751 55.9314C190.079 56.0272 189.206 56.069 188.141 56.069C187.003 56.069 186.081 56.0272 185.377 55.9314C184.667 55.8396 184.115 55.6408 183.722 55.3339C183.326 55.023 183.061 54.5856 182.923 54.0116C182.784 53.4417 182.713 52.675 182.713 51.7136V39.1968C182.713 38.2395 182.784 37.4748 182.923 36.9009C183.062 36.3289 183.327 35.8895 183.722 35.5806C184.115 35.2696 184.667 35.0749 185.377 34.9831C186.081 34.8893 187.003 34.8434 188.141 34.8434C189.206 34.8434 190.079 34.8893 190.751 34.9831C191.425 35.0749 191.952 35.2676 192.334 35.5643C192.716 35.8589 192.984 36.3034 193.136 36.8805C193.287 37.4636 193.363 38.2385 193.363 39.1958V47.0493H187.548V47.0503ZM187.548 43.2811H188.836V39.884C188.836 39.5873 188.801 39.3885 188.729 39.2865C188.664 39.1805 188.476 39.1316 188.176 39.1316C187.896 39.1316 187.722 39.1815 187.651 39.2865C187.584 39.3885 187.547 39.5873 187.547 39.884V43.2811H187.548Z" fill="black"/>
<path d="M206.548 56.069C206.548 57.7401 206.147 58.9747 205.348 59.773C204.548 60.5713 203.175 60.976 201.223 60.976H196.176V56.8918H200.67C200.994 56.8918 201.218 56.8296 201.347 56.7042C201.475 56.5768 201.538 56.3678 201.538 56.069V53.7374C201.238 54.1493 200.867 54.4368 200.425 54.5958C199.985 54.7569 199.425 54.8385 198.755 54.8385C198.083 54.8385 197.537 54.763 197.119 54.6132C196.702 54.4643 196.382 54.2288 196.164 53.9107C195.942 53.5906 195.79 53.1624 195.71 52.6241C195.629 52.0868 195.59 51.4292 195.59 50.6523V39.1968C195.59 38.3986 195.629 37.7308 195.71 37.1935C195.79 36.6562 195.947 36.228 196.177 35.9068C196.413 35.5877 196.748 35.3593 197.188 35.2217C197.63 35.082 198.198 35.0147 198.893 35.0147C199.683 35.0147 200.316 35.1004 200.791 35.2696C201.266 35.445 201.643 35.7253 201.921 36.1118V35.186H206.55V56.069H206.548ZM200.424 49.6888C200.424 49.9651 200.453 50.1609 200.511 50.272C200.568 50.3893 200.724 50.4474 200.98 50.4474C201.167 50.4474 201.312 50.4137 201.417 50.3434C201.521 50.272 201.619 50.1486 201.712 49.9651V39.883C201.619 39.6995 201.52 39.5761 201.417 39.5088C201.312 39.4395 201.167 39.4028 200.98 39.4028C200.724 39.4028 200.568 39.4629 200.511 39.5761C200.453 39.6913 200.424 39.883 200.424 40.1593V49.6888Z" fill="black"/>
<path d="M214.346 56.069C213.278 56.069 212.402 56.0395 211.72 55.9854C211.035 55.9273 210.494 55.7683 210.101 55.5032C209.705 55.2422 209.433 54.8425 209.285 54.3042C209.133 53.7669 209.055 53.0298 209.055 52.0898V47.1196C209.055 45.885 209.304 44.9827 209.803 44.4097C210.303 43.8398 211.191 43.5533 212.465 43.5533H213.443C213.81 43.5533 214.1 43.5594 214.313 43.5717C214.52 43.5839 214.706 43.6114 214.867 43.6573V39.7484C214.867 39.4497 214.831 39.2489 214.763 39.1469C214.692 39.0429 214.506 38.994 214.206 38.994C213.927 38.994 213.753 39.0439 213.685 39.1469C213.616 39.2489 213.58 39.4497 213.58 39.7484V41.6345H209.054V39.1969C209.054 38.2395 209.126 37.4647 209.264 36.8815C209.404 36.3044 209.664 35.8599 210.049 35.5653C210.43 35.2686 210.96 35.0759 211.631 34.9842C212.302 34.8904 213.173 34.8445 214.24 34.8445C215.376 34.8445 216.298 34.8904 217.006 34.9842C217.716 35.0759 218.264 35.2706 218.66 35.5816C219.056 35.8905 219.327 36.3299 219.479 36.9019C219.63 37.4759 219.706 38.2405 219.706 39.1979V55.7295C219.496 55.7989 219.181 55.8529 218.764 55.9008C218.347 55.9447 217.882 55.9763 217.371 56.0028C216.864 56.0283 216.34 56.0405 215.808 56.0548C215.273 56.0629 214.787 56.069 214.346 56.069ZM213.58 51.2721C213.58 51.5688 213.615 51.7656 213.685 51.8676C213.752 51.9736 213.938 52.0246 214.241 52.0246C214.52 52.0246 214.728 52.0032 214.866 51.9573V47.0503C214.637 47.0044 214.415 46.981 214.205 46.981C213.926 46.981 213.752 47.035 213.684 47.138C213.615 47.2399 213.579 47.4408 213.579 47.7374V51.2721H213.58Z" fill="black"/>
<path d="M233.66 55.7285H228.649V40.1603C228.649 39.884 228.619 39.6923 228.561 39.5771C228.504 39.464 228.346 39.4038 228.092 39.4038C227.856 39.4038 227.691 39.4456 227.587 39.5251C227.483 39.6067 227.396 39.7239 227.325 39.884V55.7285H222.348V35.187H226.979V36.1128C227.232 35.7264 227.604 35.446 228.092 35.2706C228.58 35.1014 229.217 35.0157 230.005 35.0157C230.702 35.0157 231.285 35.083 231.763 35.2227C232.238 35.3603 232.615 35.5887 232.896 35.9078C233.173 36.228 233.371 36.6562 233.488 37.1945C233.6 37.7318 233.66 38.3996 233.66 39.1979V55.7285Z" fill="black"/>
<path d="M158.805 63.2435L155.949 90.3324H148.85L147.911 70.683H147.772L146.623 90.3324H139.42L137.295 63.2435H142.97L143.559 82.2404H143.699L144.534 63.2435H151.496L152.088 82.2404H152.227L153.098 63.2435H158.805Z" fill="black"/>
<path d="M165.4 90.675C164.333 90.675 163.456 90.6474 162.771 90.5914C162.089 90.5312 161.548 90.3722 161.155 90.1091C160.759 89.8461 160.486 89.4485 160.335 88.9102C160.185 88.3708 160.109 87.6337 160.109 86.6957V81.7255C160.109 80.4909 160.357 79.5845 160.857 79.0136C161.357 78.4437 162.244 78.1592 163.521 78.1592H164.495C164.863 78.1592 165.156 78.1653 165.363 78.1755C165.573 78.1857 165.759 78.2153 165.923 78.2612V74.3543C165.923 74.0576 165.888 73.8568 165.819 73.7548C165.748 73.6508 165.56 73.5978 165.26 73.5978C164.98 73.5978 164.808 73.6519 164.738 73.7548C164.668 73.8568 164.634 74.0576 164.634 74.3543V76.2405H160.108V73.8027C160.108 72.8454 160.178 72.0726 160.316 71.4884C160.457 70.9053 160.717 70.4669 161.102 70.1681C161.481 69.8735 162.011 69.6767 162.684 69.587C163.356 69.4932 164.227 69.4473 165.294 69.4473C166.432 69.4473 167.352 69.4932 168.059 69.587C168.769 69.6767 169.318 69.8776 169.713 70.1885C170.106 70.4954 170.38 70.9348 170.533 71.5047C170.683 72.0787 170.759 72.8444 170.759 73.8027V90.3324C170.549 90.3997 170.238 90.4599 169.818 90.5057C169.401 90.5516 168.935 90.5832 168.425 90.6077C167.915 90.6321 167.393 90.6474 166.86 90.6597C166.331 90.6689 165.842 90.675 165.4 90.675ZM164.636 85.876C164.636 86.1727 164.669 86.3715 164.74 86.4735C164.811 86.5795 164.994 86.6284 165.297 86.6284C165.575 86.6284 165.783 86.605 165.924 86.5612V81.6562C165.689 81.6124 165.471 81.5889 165.261 81.5889C164.981 81.5889 164.81 81.6409 164.739 81.7439C164.669 81.8468 164.635 82.0487 164.635 82.3413V85.876H164.636Z" fill="black"/>
<path d="M180.912 73.7354H179.102V84.9839C179.102 85.7608 179.51 86.1513 180.32 86.1513H180.88V90.3334H179.694C177.629 90.3334 176.184 89.9847 175.363 89.2884C174.538 88.591 174.126 87.4879 174.126 85.979V73.7365H172.94V69.7939H174.126V63.5534H179.102V69.7939H180.912V73.7354Z" fill="black"/>
<path d="M188.072 85.3602C188.072 85.6589 188.104 85.8577 188.177 85.9596C188.247 86.0657 188.419 86.1146 188.698 86.1146C189.001 86.1146 189.187 86.0647 189.255 85.9596C189.325 85.8577 189.361 85.6589 189.361 85.3602V80.6632H193.884V86.3206C193.884 87.2799 193.809 88.0527 193.658 88.6359C193.505 89.217 193.241 89.6575 192.858 89.9562C192.474 90.2549 191.946 90.4476 191.276 90.5373C190.601 90.6311 189.731 90.675 188.666 90.675C187.528 90.675 186.606 90.6311 185.895 90.5373C185.19 90.4476 184.64 90.2468 184.247 89.9378C183.85 89.6269 183.582 89.1895 183.445 88.6196C183.305 88.0476 183.237 87.2799 183.237 86.3195V73.8027C183.237 72.8454 183.305 72.0787 183.445 71.5047C183.584 70.9348 183.851 70.4954 184.247 70.1885C184.64 69.8776 185.19 69.6767 185.895 69.587C186.606 69.4932 187.528 69.4473 188.666 69.4473C189.731 69.4473 190.601 69.4932 191.276 69.587C191.946 69.6767 192.474 69.8735 192.858 70.1681C193.241 70.4669 193.505 70.9053 193.658 71.4884C193.809 72.0716 193.884 72.8444 193.884 73.8027V77.4027H189.361V74.7621C189.361 74.4655 189.326 74.2646 189.255 74.1647C189.187 74.0627 189.001 74.0118 188.698 74.0118C188.419 74.0118 188.247 74.0638 188.177 74.1647C188.105 74.2646 188.072 74.4655 188.072 74.7621V85.3602Z" fill="black"/>
<path d="M201.156 63.2435V70.7187C201.456 70.3068 201.833 70.0213 202.286 69.8623C202.739 69.7032 203.301 69.6216 203.973 69.6216C204.647 69.6216 205.209 69.6951 205.66 69.8449C206.114 69.9938 206.474 70.2293 206.742 70.5494C207.009 70.8685 207.2 71.2957 207.315 71.832C207.432 72.3693 207.49 73.0289 207.49 73.8038V90.3334H202.478V74.7642C202.478 74.4889 202.448 74.2982 202.391 74.183C202.333 74.0719 202.177 74.0138 201.921 74.0138C201.688 74.0138 201.519 74.0515 201.416 74.129C201.315 74.2106 201.224 74.3319 201.157 74.4899V90.3344H196.177V63.2455H201.156V63.2435Z" fill="black"/>
<path d="M214.604 81.6562V85.7364C214.604 86.0351 214.64 86.2339 214.712 86.3379C214.782 86.4419 214.954 86.4908 215.234 86.4908C215.536 86.4908 215.722 86.4409 215.79 86.3379C215.858 86.2339 215.894 86.0351 215.894 85.7364V83.3364H220.42V86.3195C220.42 87.2789 220.343 88.0517 220.193 88.6349C220.041 89.216 219.776 89.6564 219.391 89.9552C219.009 90.2539 218.482 90.4466 217.811 90.5363C217.136 90.6301 216.266 90.6739 215.198 90.6739C214.06 90.6739 213.141 90.6301 212.431 90.5363C211.724 90.4466 211.175 90.2457 210.779 89.9368C210.383 89.6259 210.115 89.1885 209.98 88.6186C209.841 88.0466 209.769 87.2789 209.769 86.3185V73.8018C209.769 72.8444 209.841 72.0777 209.98 71.5037C210.116 70.9338 210.384 70.4944 210.779 70.1875C211.175 69.8766 211.724 69.6757 212.431 69.586C213.141 69.4922 214.06 69.4463 215.198 69.4463C216.266 69.4463 217.136 69.4922 217.811 69.586C218.482 69.6757 219.009 69.8725 219.391 70.1671C219.776 70.4658 220.041 70.9042 220.193 71.4874C220.343 72.0706 220.42 72.8434 220.42 73.8018V81.6552H214.604V81.6562ZM214.604 77.885H215.893V74.4879C215.893 74.1953 215.858 73.9944 215.789 73.8905C215.721 73.7865 215.535 73.7355 215.233 73.7355C214.953 73.7355 214.781 73.7875 214.711 73.8905C214.64 73.9944 214.603 74.1953 214.603 74.4879V77.885H214.604Z" fill="black"/>
<path d="M228.791 75.7266V74.7631C228.791 74.4665 228.755 74.2656 228.687 74.1657C228.619 74.0638 228.43 74.0128 228.127 74.0128C227.851 74.0128 227.676 74.0648 227.609 74.1657C227.537 74.2656 227.501 74.4665 227.501 74.7631V75.7929C227.501 76.1834 227.543 76.4576 227.624 76.6177C227.706 76.7788 227.898 76.948 228.198 77.1315L231.957 79.191C232.284 79.3745 232.554 79.5498 232.775 79.7211C232.997 79.8944 233.172 80.082 233.297 80.287C233.422 80.4939 233.513 80.7386 233.559 81.0261C233.605 81.3126 233.627 81.6592 233.627 82.0691V86.3226C233.627 87.282 233.553 88.0507 233.4 88.6226C233.249 89.1926 232.972 89.6299 232.564 89.9409C232.16 90.2498 231.601 90.4507 230.897 90.5404C230.186 90.6342 229.264 90.678 228.126 90.678C227.015 90.678 226.098 90.6342 225.377 90.5404C224.66 90.4507 224.103 90.2498 223.707 89.9409C223.314 89.6299 223.041 89.1926 222.892 88.6226C222.741 88.0507 222.664 87.283 222.664 86.3226V83.1345H227.501V85.3632C227.501 85.6619 227.536 85.8607 227.609 85.9627C227.676 86.0687 227.851 86.1177 228.127 86.1177C228.43 86.1177 228.619 86.0677 228.687 85.9627C228.754 85.8607 228.791 85.6619 228.791 85.3632V83.6484C228.791 83.2579 228.744 82.9969 228.652 82.8623C228.559 82.7247 228.384 82.584 228.127 82.4484L224.685 80.5969C224.268 80.3695 223.924 80.1453 223.659 79.9281C223.388 79.7109 223.181 79.4662 223.031 79.193C222.879 78.9167 222.784 78.5854 222.734 78.199C222.688 77.8085 222.666 77.3283 222.666 76.7574V73.8058C222.666 72.8485 222.743 72.0818 222.894 71.5078C223.044 70.9379 223.316 70.4985 223.709 70.1916C224.105 69.8806 224.662 69.6798 225.379 69.5901C226.1 69.4963 227.017 69.4504 228.128 69.4504C229.267 69.4504 230.188 69.4963 230.899 69.5901C231.604 69.6798 232.163 69.8806 232.566 70.1916C232.974 70.4985 233.251 70.9379 233.402 71.5078C233.554 72.0818 233.629 72.8475 233.629 73.8058V75.7297H228.791V75.7266Z" fill="black"/>
</svg>
